<svg width="248" height="87" viewBox="0 0 248 87" fill="none" xmlns="http://www.w3.org/2000/svg">
<path d="M128.9 19.025V24.8H117.35V71H110.6V24.8H99.05V19.025H128.9ZM162.832 25.175C163.482 28.175 164.182 31.35 164.932 34.7C165.682 38.05 166.457 41.375 167.257 44.675C168.107 47.975 168.957 51.175 169.807 54.275C170.657 57.375 171.457 60.2 172.207 62.75C172.807 59.95 173.382 56.85 173.932 53.45C174.482 50 175.007 46.4 175.507 42.65C176.057 38.9 176.557 35.025 177.007 31.025C177.457 27.025 177.832 23.025 178.132 19.025H184.732C183.582 29.075 182.282 38.325 180.832 46.775C179.432 55.225 177.782 63.3 175.882 71H169.057C168.307 68.55 167.482 65.825 166.582 62.825C165.732 59.825 164.882 56.725 164.032 53.525C163.182 50.275 162.357 47 161.557 43.7C160.757 40.4 160.032 37.2 159.382 34.1C158.732 37.2 158.007 40.4 157.207 43.7C156.407 47 155.582 50.275 154.732 53.525C153.882 56.725 153.007 59.825 152.107 62.825C151.257 65.825 150.457 68.55 149.707 71H142.882C140.982 63.3 139.307 55.225 137.857 46.775C136.457 38.325 135.182 29.075 134.032 19.025H140.857C141.157 23.025 141.532 27.025 141.982 31.025C142.432 34.975 142.907 38.85 143.407 42.65C143.957 46.4 144.507 50 145.057 53.45C145.607 56.85 146.182 59.95 146.782 62.75C147.532 60.2 148.332 57.375 149.182 54.275C150.032 51.175 150.857 47.975 151.657 44.675C152.507 41.375 153.307 38.05 154.057 34.7C154.807 31.35 155.507 28.175 156.157 25.175H162.832ZM200.472 66.35C203.172 66.35 205.247 65.6 206.697 64.1C208.197 62.6 208.947 60.575 208.947 58.025C208.947 56.675 208.722 55.475 208.272 54.425C207.822 53.375 207.222 52.425 206.472 51.575C205.772 50.725 204.947 49.95 203.997 49.25C203.047 48.55 202.072 47.85 201.072 47.15C199.922 46.35 198.722 45.5 197.472 44.6C196.222 43.7 195.072 42.65 194.022 41.45C193.022 40.25 192.197 38.85 191.547 37.25C190.897 35.65 190.572 33.775 190.572 31.625C190.572 29.525 190.922 27.625 191.622 25.925C192.372 24.225 193.372 22.775 194.622 21.575C195.922 20.375 197.447 19.45 199.197 18.8C200.997 18.15 202.922 17.825 204.972 17.825C206.972 17.825 208.822 18.075 210.522 18.575C212.222 19.075 213.647 19.675 214.797 20.375L212.697 25.7C211.647 25 210.497 24.475 209.247 24.125C208.047 23.725 206.772 23.525 205.422 23.525C202.972 23.525 200.997 24.2 199.497 25.55C198.047 26.85 197.322 28.775 197.322 31.325C197.322 32.725 197.547 33.95 197.997 35C198.497 36.05 199.122 37 199.872 37.85C200.672 38.7 201.572 39.475 202.572 40.175C203.622 40.875 204.722 41.6 205.872 42.35C207.022 43.1 208.197 43.925 209.397 44.825C210.597 45.725 211.672 46.775 212.622 47.975C213.622 49.125 214.422 50.5 215.022 52.1C215.672 53.65 215.997 55.5 215.997 57.65C215.997 59.6 215.697 61.45 215.097 63.2C214.497 64.95 213.547 66.5 212.247 67.85C210.997 69.15 209.397 70.2 207.447 71C205.547 71.75 203.297 72.125 200.697 72.125C198.297 72.125 196.197 71.85 194.397 71.3C192.597 70.75 190.997 70.025 189.597 69.125L191.697 63.725C192.997 64.525 194.322 65.175 195.672 65.675C197.072 66.125 198.672 66.35 200.472 66.35Z" fill="#17161E"/>
<path d="M128.9 19.025H129.9V18.025H128.9V19.025ZM128.9 24.8V25.8H129.9V24.8H128.9ZM117.35 24.8V23.8H116.35V24.8H117.35ZM117.35 71V72H118.35V71H117.35ZM110.6 71H109.6V72H110.6V71ZM110.6 24.8H111.6V23.8H110.6V24.8ZM99.05 24.8H98.05V25.8H99.05V24.8ZM99.05 19.025V18.025H98.05V19.025H99.05ZM127.9 19.025V24.8H129.9V19.025H127.9ZM128.9 23.8H117.35V25.8H128.9V23.8ZM116.35 24.8V71H118.35V24.8H116.35ZM117.35 70H110.6V72H117.35V70ZM111.6 71V24.8H109.6V71H111.6ZM110.6 23.8H99.05V25.8H110.6V23.8ZM100.05 24.8V19.025H98.05V24.8H100.05ZM99.05 20.025H128.9V18.025H99.05V20.025ZM162.832 25.175L163.81 24.9632L163.639 24.175H162.832V25.175ZM164.932 34.7L165.908 34.4815L165.908 34.4815L164.932 34.7ZM167.257 44.675L166.285 44.9106L166.287 44.9175L166.289 44.9244L167.257 44.675ZM169.807 54.275L168.843 54.5394L168.843 54.5394L169.807 54.275ZM172.207 62.75L171.248 63.0322L173.185 62.9595L172.207 62.75ZM173.932 53.45L174.919 53.6097L174.92 53.6074L173.932 53.45ZM175.507 42.65L174.518 42.5049L174.516 42.5178L175.507 42.65ZM177.007 31.025L176.013 30.9132L176.013 30.9132L177.007 31.025ZM178.132 19.025V18.025H177.204L177.135 18.9502L178.132 19.025ZM184.732 19.025L185.726 19.1387L185.853 18.025H184.732V19.025ZM180.832 46.775L179.847 46.6059L179.846 46.6115L180.832 46.775ZM175.882 71V72H176.665L176.853 71.2396L175.882 71ZM169.057 71L168.101 71.2927L168.318 72H169.057V71ZM166.582 62.825L165.62 63.0976L165.622 63.105L165.624 63.1123L166.582 62.825ZM164.032 53.525L163.065 53.778L163.066 53.7817L164.032 53.525ZM161.557 43.7L160.585 43.9356L160.585 43.9356L161.557 43.7ZM159.382 34.1L160.361 33.8948H158.404L159.382 34.1ZM157.207 43.7L156.235 43.4644L156.235 43.4644L157.207 43.7ZM154.732 53.525L155.699 53.7817L155.7 53.778L154.732 53.525ZM152.107 62.825L151.149 62.5377L151.147 62.545L151.145 62.5524L152.107 62.825ZM149.707 71V72H150.447L150.663 71.2927L149.707 71ZM142.882 71L141.911 71.2396L142.099 72H142.882V71ZM137.857 46.775L136.871 46.9385L136.872 46.9441L137.857 46.775ZM134.032 19.025V18.025H132.911L133.039 19.1387L134.032 19.025ZM140.857 19.025L141.854 18.9502L141.785 18.025H140.857V19.025ZM141.982 31.025L140.988 31.1368L140.989 31.1382L141.982 31.025ZM143.407 42.65L142.416 42.7805L142.417 42.7878L142.418 42.7951L143.407 42.65ZM145.057 53.45L144.07 53.6074L144.07 53.6097L145.057 53.45ZM146.782 62.75L145.804 62.9595L147.742 63.0322L146.782 62.75ZM149.182 54.275L150.147 54.5394L150.147 54.5394L149.182 54.275ZM151.657 44.675L150.689 44.4256L150.687 44.4325L150.685 44.4394L151.657 44.675ZM154.057 34.7L153.081 34.4815L153.081 34.4815L154.057 34.7ZM156.157 25.175V24.175H155.351L155.18 24.9632L156.157 25.175ZM161.855 25.3868C162.505 28.3892 163.206 31.5665 163.956 34.9185L165.908 34.4815C165.159 31.1335 164.459 27.9608 163.81 24.9632L161.855 25.3868ZM163.956 34.9185C164.708 38.2741 165.484 41.6048 166.285 44.9106L168.229 44.4394C167.43 41.1452 166.657 37.8259 165.908 34.4815L163.956 34.9185ZM166.289 44.9244C167.14 48.2291 167.991 51.4342 168.843 54.5394L170.772 54.0106C169.923 50.9158 169.074 47.7209 168.226 44.4256L166.289 44.9244ZM168.843 54.5394C169.694 57.6442 170.496 60.4752 171.248 63.0322L173.167 62.4678C172.419 59.9248 171.62 57.1058 170.772 54.0106L168.843 54.5394ZM173.185 62.9595C173.789 60.1401 174.367 57.0232 174.919 53.6097L172.945 53.2903C172.397 56.6768 171.825 59.7599 171.229 62.5405L173.185 62.9595ZM174.92 53.6074C175.471 50.1484 175.997 46.5399 176.498 42.7822L174.516 42.5178C174.017 46.2601 173.493 49.8516 172.945 53.2926L174.92 53.6074ZM176.497 42.7951C177.048 39.0334 177.55 35.1472 178.001 31.1368L176.013 30.9132C175.565 34.9028 175.066 38.7666 174.518 42.5049L176.497 42.7951ZM178.001 31.1368C178.452 27.1245 178.828 23.1122 179.129 19.0998L177.135 18.9502C176.836 22.9378 176.462 26.9255 176.013 30.9132L178.001 31.1368ZM178.132 20.025H184.732V18.025H178.132V20.025ZM183.739 18.9113C182.59 28.946 181.293 38.1772 179.847 46.6059L181.818 46.9441C183.271 38.4728 184.574 29.204 185.726 19.1387L183.739 18.9113ZM179.846 46.6115C178.45 55.038 176.805 63.0875 174.911 70.7604L176.853 71.2396C178.76 63.5125 180.415 55.412 181.819 46.9385L179.846 46.6115ZM175.882 70H169.057V72H175.882V70ZM170.013 70.7073C169.264 68.2594 168.44 65.5362 167.54 62.5377L165.624 63.1123C166.525 66.1138 167.35 68.8406 168.101 71.2927L170.013 70.7073ZM167.544 62.5524C166.696 59.558 165.847 56.4633 164.999 53.2683L163.066 53.7817C163.917 56.9867 164.769 60.092 165.62 63.0976L167.544 62.5524ZM165 53.272C164.151 50.0278 163.328 46.7586 162.529 43.4644L160.585 43.9356C161.387 47.2414 162.213 50.5222 163.065 53.778L165 53.272ZM162.529 43.4644C161.731 40.1738 161.009 36.9839 160.361 33.8948L158.404 34.3052C159.056 37.4161 159.783 40.6262 160.585 43.9356L162.529 43.4644ZM158.404 33.8948C157.756 36.9839 157.033 40.1738 156.235 43.4644L158.179 43.9356C158.981 40.6262 159.709 37.4161 160.361 34.3052L158.404 33.8948ZM156.235 43.4644C155.437 46.7586 154.613 50.0278 153.765 53.272L155.7 53.778C156.551 50.5222 157.378 47.2414 158.179 43.9356L156.235 43.4644ZM153.766 53.2683C152.918 56.4586 152.046 59.5484 151.149 62.5377L153.065 63.1123C153.968 60.1016 154.846 56.9914 155.699 53.7817L153.766 53.2683ZM151.145 62.5524C150.297 65.5471 149.499 68.2652 148.751 70.7073L150.663 71.2927C151.416 68.8348 152.218 66.1029 153.069 63.0976L151.145 62.5524ZM149.707 70H142.882V72H149.707V70ZM143.853 70.7604C141.959 63.0855 140.289 55.0341 138.843 46.6059L136.872 46.9441C138.325 55.4159 140.005 63.5145 141.911 71.2396L143.853 70.7604ZM138.844 46.6115C137.447 38.1807 136.174 28.9475 135.026 18.9113L133.039 19.1387C134.19 29.2025 135.468 38.4693 136.871 46.9385L138.844 46.6115ZM134.032 20.025H140.857V18.025H134.032V20.025ZM139.86 19.0998C140.161 23.1122 140.537 27.1245 140.988 31.1368L142.976 30.9132C142.527 26.9255 142.153 22.9378 141.854 18.9502L139.86 19.0998ZM140.989 31.1382C141.439 35.0937 141.915 38.9745 142.416 42.7805L144.399 42.5195C143.899 38.7255 143.425 34.8563 142.976 30.9118L140.989 31.1382ZM142.418 42.7951C142.968 46.5489 143.519 50.153 144.07 53.6074L146.045 53.2926C145.495 49.847 144.946 46.2511 144.397 42.5049L142.418 42.7951ZM144.07 53.6097C144.622 57.0232 145.2 60.1401 145.804 62.9595L147.76 62.5405C147.164 59.7599 146.592 56.6768 146.044 53.2903L144.07 53.6097ZM147.742 63.0322C148.494 60.4752 149.295 57.6442 150.147 54.5394L148.218 54.0106C147.369 57.1058 146.571 59.9248 145.823 62.4678L147.742 63.0322ZM150.147 54.5394C150.999 51.4293 151.827 48.2197 152.629 44.9106L150.685 44.4394C149.888 47.7303 149.065 50.9207 148.218 54.0106L150.147 54.5394ZM152.626 44.9244C153.478 41.6141 154.281 38.2788 155.033 34.9185L153.081 34.4815C152.334 37.8212 151.536 41.1359 150.689 44.4256L152.626 44.9244ZM155.033 34.9185C155.784 31.5665 156.484 28.3892 157.135 25.3868L155.18 24.9632C154.53 27.9608 153.831 31.1335 153.081 34.4815L155.033 34.9185ZM156.157 26.175H162.832V24.175H156.157V26.175ZM206.697 64.1L205.99 63.3929L205.984 63.3989L205.978 63.405L206.697 64.1ZM208.272 54.425L209.191 54.0311L209.191 54.0311L208.272 54.425ZM206.472 51.575L205.7 52.2107L205.711 52.2239L205.722 52.2366L206.472 51.575ZM203.997 49.25L203.403 50.0551L203.403 50.0551L203.997 49.25ZM201.072 47.15L201.645 46.3308L201.643 46.3291L201.072 47.15ZM197.472 44.6L198.056 43.7885L198.056 43.7885L197.472 44.6ZM194.022 41.45L193.253 42.0902L193.261 42.0994L193.269 42.1085L194.022 41.45ZM191.622 25.925L190.707 25.5214L190.702 25.5327L190.697 25.5442L191.622 25.925ZM194.622 21.575L193.943 20.8402L193.936 20.8468L193.929 20.8536L194.622 21.575ZM199.197 18.8L198.857 17.8594L198.848 17.8626L199.197 18.8ZM210.522 18.575L210.804 17.6156L210.804 17.6156L210.522 18.575ZM214.797 20.375L215.727 20.7419L216.036 19.9586L215.317 19.5208L214.797 20.375ZM212.697 25.7L212.142 26.532L213.173 27.2191L213.627 26.0669L212.697 25.7ZM209.247 24.125L208.93 25.0737L208.954 25.0814L208.977 25.088L209.247 24.125ZM199.497 25.55L200.164 26.2946L200.166 26.2933L199.497 25.55ZM197.997 35L197.078 35.3939L197.085 35.4121L197.094 35.4299L197.997 35ZM199.872 37.85L199.122 38.5116L199.132 38.5237L199.143 38.5354L199.872 37.85ZM202.572 40.175L201.998 40.9942L202.008 41.0007L202.017 41.007L202.572 40.175ZM205.872 42.35L206.418 41.5124L206.418 41.5124L205.872 42.35ZM209.397 44.825L208.797 45.625L208.797 45.625L209.397 44.825ZM212.622 47.975L211.838 48.5957L211.852 48.6138L211.867 48.6312L212.622 47.975ZM215.022 52.1L214.085 52.4511L214.092 52.4691L214.099 52.4867L215.022 52.1ZM215.097 63.2L216.043 63.5243L216.043 63.5243L215.097 63.2ZM212.247 67.85L211.526 67.1564L211.526 67.1569L212.247 67.85ZM207.447 71L207.814 71.9302L207.826 71.9252L207.447 71ZM189.597 69.125L188.665 68.7626L188.368 69.5242L189.056 69.9662L189.597 69.125ZM191.697 63.725L192.221 62.8733L191.199 62.2448L190.765 63.3626L191.697 63.725ZM195.672 65.675L195.324 66.6127L195.345 66.6203L195.366 66.627L195.672 65.675ZM200.472 67.35C203.359 67.35 205.726 66.5429 207.416 64.795L205.978 63.405C204.767 64.6571 202.984 65.35 200.472 65.35V67.35ZM207.404 64.8071C209.128 63.0826 209.947 60.7829 209.947 58.025H207.947C207.947 60.3671 207.265 62.1174 205.99 63.3929L207.404 64.8071ZM209.947 58.025C209.947 56.5638 209.703 55.2261 209.191 54.0311L207.353 54.8189C207.74 55.7239 207.947 56.7862 207.947 58.025H209.947ZM209.191 54.0311C208.699 52.8842 208.042 51.8437 207.222 50.9134L205.722 52.2366C206.401 53.0063 206.944 53.8658 207.353 54.8189L209.191 54.0311ZM207.244 50.9393C206.488 50.0213 205.601 49.1903 204.59 48.4449L203.403 50.0551C204.292 50.7097 205.056 51.4287 205.7 52.2107L207.244 50.9393ZM204.59 48.4449C203.633 47.74 202.652 47.0353 201.645 46.3308L200.498 47.9692C201.492 48.6647 202.46 49.36 203.403 50.0551L204.59 48.4449ZM201.643 46.3291C200.498 45.5325 199.302 44.6856 198.056 43.7885L196.887 45.4115C198.141 46.3144 199.346 47.1675 200.501 47.9709L201.643 46.3291ZM198.056 43.7885C196.87 42.9344 195.776 41.9363 194.774 40.7915L193.269 42.1085C194.367 43.3637 195.574 44.4656 196.887 45.4115L198.056 43.7885ZM194.79 40.8098C193.863 39.697 193.088 38.3881 192.473 36.8736L190.62 37.6264C191.305 39.3119 192.181 40.803 193.253 42.0902L194.79 40.8098ZM192.473 36.8736C191.882 35.4185 191.572 33.6765 191.572 31.625H189.572C189.572 33.8735 189.911 35.8815 190.62 37.6264L192.473 36.8736ZM191.572 31.625C191.572 29.6372 191.903 27.869 192.546 26.3057L190.697 25.5442C189.941 27.381 189.572 29.4128 189.572 31.625H191.572ZM192.537 26.3286C193.238 24.7393 194.165 23.3996 195.314 22.2964L193.929 20.8536C192.578 22.1504 191.506 23.7107 190.707 25.5214L192.537 26.3286ZM195.3 22.3098C196.499 21.203 197.91 20.3446 199.545 19.7374L198.848 17.8626C196.983 18.5554 195.344 19.547 193.943 20.8402L195.3 22.3098ZM199.536 19.7406C201.22 19.1326 203.029 18.825 204.972 18.825V16.825C202.814 16.825 200.773 17.1674 198.857 17.8594L199.536 19.7406ZM204.972 18.825C206.888 18.825 208.642 19.0645 210.24 19.5344L210.804 17.6156C209.001 17.0855 207.055 16.825 204.972 16.825V18.825ZM210.24 19.5344C211.881 20.0171 213.22 20.5861 214.277 21.2292L215.317 19.5208C214.073 18.7639 212.563 18.1329 210.804 17.6156L210.24 19.5344ZM213.866 20.0081L211.766 25.3331L213.627 26.0669L215.727 20.7419L213.866 20.0081ZM213.251 24.8679C212.111 24.1079 210.865 23.5396 209.516 23.162L208.977 25.088C210.129 25.4104 211.182 25.8921 212.142 26.532L213.251 24.8679ZM209.563 23.1763C208.254 22.7401 206.872 22.525 205.422 22.525V24.525C206.671 24.525 207.839 24.7099 208.93 25.0737L209.563 23.1763ZM205.422 22.525C202.78 22.525 200.549 23.2577 198.828 24.8067L200.166 26.2933C201.445 25.1423 203.163 24.525 205.422 24.525V22.525ZM198.829 24.8054C197.107 26.3494 196.322 28.5839 196.322 31.325H198.322C198.322 28.9661 198.986 27.3506 200.164 26.2946L198.829 24.8054ZM196.322 31.325C196.322 32.8307 196.564 34.1947 197.078 35.3939L198.916 34.6061C198.53 33.7053 198.322 32.6193 198.322 31.325H196.322ZM197.094 35.4299C197.633 36.5617 198.309 37.5901 199.122 38.5116L200.622 37.1884C199.935 36.4099 199.361 35.5383 198.9 34.5701L197.094 35.4299ZM199.143 38.5354C199.992 39.4374 200.945 40.2568 201.998 40.9942L203.145 39.3558C202.199 38.6932 201.351 37.9626 200.6 37.1646L199.143 38.5354ZM202.017 41.007C203.07 41.7091 204.173 42.4359 205.325 43.1876L206.418 41.5124C205.271 40.7641 204.173 40.0409 203.126 39.3429L202.017 41.007ZM205.325 43.1876C206.456 43.9246 207.613 44.7369 208.797 45.625L209.997 44.025C208.781 43.1131 207.588 42.2754 206.418 41.5124L205.325 43.1876ZM208.797 45.625C209.926 46.4723 210.94 47.4618 211.838 48.5957L213.406 47.3543C212.403 46.0882 211.267 44.9776 209.997 44.025L208.797 45.625ZM211.867 48.6312C212.78 49.6809 213.522 50.9494 214.085 52.4511L215.958 51.7489C215.321 50.0506 214.463 48.5691 213.376 47.3188L211.867 48.6312ZM214.099 52.4867C214.686 53.8853 214.997 55.5972 214.997 57.65H216.997C216.997 55.4028 216.657 53.4147 215.944 51.7133L214.099 52.4867ZM214.997 57.65C214.997 59.4957 214.713 61.2356 214.151 62.8757L216.043 63.5243C216.68 61.6644 216.997 59.7043 216.997 57.65H214.997ZM214.151 62.8757C213.599 64.4857 212.726 65.9101 211.526 67.1564L212.967 68.5436C214.367 67.0899 215.395 65.4143 216.043 63.5243L214.151 62.8757ZM211.526 67.1569C210.387 68.3412 208.91 69.3188 207.067 70.0748L207.826 71.9252C209.883 71.0812 211.606 69.9588 212.968 68.5431L211.526 67.1569ZM207.08 70.0698C205.324 70.763 203.204 71.125 200.697 71.125V73.125C203.39 73.125 205.77 72.737 207.814 71.9302L207.08 70.0698ZM200.697 71.125C198.37 71.125 196.372 70.858 194.689 70.3436L194.104 72.2564C196.021 72.842 198.223 73.125 200.697 73.125V71.125ZM194.689 70.3436C192.965 69.817 191.451 69.1282 190.137 68.2838L189.056 69.9662C190.542 70.9218 192.228 71.683 194.104 72.2564L194.689 70.3436ZM190.529 69.4874L192.629 64.0874L190.765 63.3626L188.665 68.7626L190.529 69.4874ZM191.173 64.5767C192.525 65.409 193.909 66.0886 195.324 66.6127L196.019 64.7373C194.734 64.2614 193.468 63.641 192.221 62.8733L191.173 64.5767ZM195.366 66.627C196.884 67.115 198.59 67.35 200.472 67.35V65.35C198.753 65.35 197.26 65.135 195.978 64.723L195.366 66.627Z" fill="#17161E"/>
<path d="M55.3764 2L41 41.0081L70.6153 70.6234L84.9919 31.6155L55.3764 2Z" fill="#17161E" fill-opacity="0.66"/>
<path d="M1 57.3764L30.6155 86.9919L69.6234 72.6153L40.0081 43L1 57.3764Z" fill="#17161E" fill-opacity="0.33"/>
<path d="M53.3845 2L14.3764 16.3764L0 55.3845L39.0081 41.0081L53.3845 2Z" fill="#17161E"/>
</svg>
